<?xml version="1.0" encoding="UTF-8"?>
<svg id="Camada_1" data-name="Camada 1" xmlns="http://www.w3.org/2000/svg" viewBox="0 0 21 21.01">
  <defs>
    <style>
      .cls-1 {
        fill: #fff;
      }
    </style>
  </defs>
  <path class="cls-1" d="M10.5,0C4.7,0,0,4.7,0,10.5s4.7,10.5,10.5,10.5,10.5-4.7,10.5-10.5S16.3,0,10.5,0ZM7.83,15.68h-2.24v-7.21h2.24v7.21ZM6.71,7.48c-.72,0-1.3-.58-1.3-1.3s.58-1.3,1.3-1.3,1.3.58,1.3,1.3-.58,1.3-1.3,1.3ZM16.23,15.68h-2.24v-3.51c0-.84-.01-1.91-1.17-1.91s-1.34.91-1.34,1.85v3.57h-2.24v-7.21h2.15v.99h.03c.3-.57,1.03-1.17,2.12-1.17,2.27,0,2.69,1.49,2.69,3.44v3.96Z"/>
</svg>