<?xml version="1.0" encoding="UTF-8"?>
<svg id="Camada_1" data-name="Camada 1" xmlns="http://www.w3.org/2000/svg" viewBox="0 0 21 21.04">
  <defs>
    <style>
      .cls-1 {
        fill: #fff;
      }
    </style>
  </defs>
  <path class="cls-1" d="M12.26,5.96h-3.52c-1.56,0-2.83,1.27-2.83,2.83v3.52c0,1.56,1.26,2.83,2.83,2.83h3.52c1.56,0,2.82-1.26,2.82-2.83v-3.52c0-1.56-1.27-2.83-2.82-2.83ZM10.65,13.55c-1.65,0-2.99-1.34-2.99-2.99s1.34-2.99,2.99-2.99,2.99,1.34,2.99,2.99-1.34,2.99-2.99,2.99ZM13.43,8.28c-.42,0-.76-.34-.76-.76s.34-.76.76-.76.76.34.76.76-.34.76-.76.76Z"/>
  <path class="cls-1" d="M10.5.04C4.7.04,0,4.74,0,10.54s4.7,10.5,10.5,10.5,10.5-4.7,10.5-10.5S16.3.04,10.5.04ZM16.17,12.72c0,1.93-1.57,3.5-3.5,3.5h-4.36c-1.93,0-3.5-1.57-3.5-3.5v-4.35c0-1.93,1.57-3.5,3.5-3.5h4.36c1.93,0,3.5,1.57,3.5,3.5v4.35Z"/>
  <path class="cls-1" d="M10.65,8.76c-.99,0-1.8.8-1.8,1.8s.8,1.8,1.8,1.8,1.8-.81,1.8-1.8-.81-1.8-1.8-1.8Z"/>
</svg>