<?xml version="1.0" encoding="UTF-8"?>
<svg id="Camada_1" data-name="Camada 1" xmlns="http://www.w3.org/2000/svg" viewBox="0 0 21 21.17">
  <defs>
    <style>
      .cls-1 {
        fill: #fff;
      }
    </style>
  </defs>
  <path class="cls-1" d="M7.15,14.44c.4.35.85.63,1.33.84-.3-.39-.54-.84-.73-1.3-.21.14-.41.29-.6.46Z"/>
  <path class="cls-1" d="M7.13,10.97h-1.72c.09,1.1.51,2.11,1.22,2.94.27-.25.56-.47.87-.65-.21-.7-.34-1.48-.37-2.28Z"/>
  <path class="cls-1" d="M13.85,6.71c-.4-.35-.85-.63-1.33-.84.3.39.54.84.73,1.3.21-.14.41-.29.6-.46Z"/>
  <path class="cls-1" d="M7.46,7.93c-.31-.18-.6-.4-.88-.64-.7.83-1.11,1.86-1.18,2.94h1.72c.02-.82.14-1.59.34-2.3Z"/>
  <path class="cls-1" d="M8.41,13.61c.32.81.91,1.79,1.75,2.02l-.02-2.48c-.61.05-1.19.2-1.74.45Z"/>
  <path class="cls-1" d="M8.42,5.9c-.48.21-.92.5-1.32.85.19.17.39.32.6.45.18-.46.42-.91.71-1.31Z"/>
  <path class="cls-1" d="M7.87,10.22l2.26-.02v-1.46c-.7-.04-1.37-.19-1.99-.46-.16.6-.25,1.26-.27,1.94Z"/>
  <path class="cls-1" d="M10.11,7.99l-.02-2.48c-.84.25-1.42,1.23-1.73,2.05.55.24,1.13.39,1.74.43Z"/>
  <path class="cls-1" d="M8.17,12.9c.62-.27,1.28-.44,1.97-.49v-1.46s-2.27.02-2.27.02c.03.68.13,1.34.3,1.93Z"/>
  <path class="cls-1" d="M13.54,13.21c.31.18.6.4.88.64.7-.83,1.11-1.86,1.18-2.94h-1.72c-.02.82-.14,1.59-.34,2.3Z"/>
  <path class="cls-1" d="M12.58,15.24c.48-.21.92-.5,1.32-.85-.19-.17-.39-.32-.6-.45-.18.46-.42.91-.71,1.31Z"/>
  <path class="cls-1" d="M13.5,7.89c.21.7.34,1.48.37,2.28h1.72c-.09-1.1-.51-2.11-1.22-2.94-.27.25-.56.47-.87.65Z"/>
  <path class="cls-1" d="M10.5.07C4.7.07,0,4.77,0,10.57s4.7,10.5,10.5,10.5,10.5-4.7,10.5-10.5S16.3.07,10.5.07ZM14.67,14.69c-2.27,2.31-5.98,2.33-8.28.06-2.31-2.27-2.33-5.98-.06-8.28,2.27-2.31,5.98-2.33,8.28-.06,2.31,2.27,2.33,5.98.06,8.28Z"/>
  <path class="cls-1" d="M10.89,13.15l.02,2.48c.84-.25,1.41-1.23,1.73-2.05-.55-.24-1.13-.39-1.74-.43Z"/>
  <path class="cls-1" d="M12.83,8.25c-.62.27-1.28.44-1.97.49v1.46s2.27-.02,2.27-.02c-.03-.68-.13-1.34-.3-1.93Z"/>
  <path class="cls-1" d="M10.84,5.51l.02,2.48c.61-.05,1.19-.2,1.74-.45-.32-.81-.91-1.79-1.75-2.02Z"/>
  <path class="cls-1" d="M13.13,10.93l-2.26.02v1.46c.7.04,1.37.19,1.99.46.16-.6.25-1.26.27-1.94Z"/>
</svg>