<?xml version="1.0" encoding="UTF-8"?>
<svg id="Camada_1" data-name="Camada 1" xmlns="http://www.w3.org/2000/svg" viewBox="0 0 318.77 44.83">
  <defs>
    <style>
      .cls-1 {
        fill: #fff;
      }
    </style>
  </defs>
  <path class="cls-1" d="M128.92,44.83h-1.72V0h1.72v44.83Z"/>
  <g>
    <path class="cls-1" d="M157.15,2.67v10.35c0,5.34-3.28,8.08-7.82,8.08s-8.03-2.63-8.03-8.08V2.67h3.38v10.35c0,3.25,1.86,4.98,4.67,4.98s4.41-1.88,4.41-4.98V2.67h3.38Z"/>
    <path class="cls-1" d="M235.07,11.78c-.05,4.67-2.92,9.34-9.26,9.34s-9.29-4.57-9.29-9.32,3.05-9.52,9.29-9.52,9.32,4.78,9.26,9.5ZM219.87,11.86c.08,2.97,1.68,6.14,5.93,6.14s5.86-3.2,5.91-6.17c.05-3.04-1.65-6.45-5.91-6.45s-6.01,3.43-5.93,6.48Z"/>
    <path class="cls-1" d="M260.41,20.71h-2.89l-2.25-5.68-1.91-5.7-1.88,5.75-2.19,5.62h-2.89l-6.63-18.06h3.82l4.26,13.03,4.39-13.03h2.22l4.52,13.03,4.13-13.03h3.82l-6.5,18.06Z"/>
    <path class="cls-1" d="M284.29,7.01c-.62-1.03-2.32-2.01-4.28-2.01-2.53,0-3.74,1.06-3.74,2.4,0,1.57,1.86,2.01,4.03,2.27,3.77.46,7.28,1.45,7.28,5.75,0,4.03-3.56,5.75-7.59,5.75-3.69,0-6.53-1.14-7.87-4.44l2.84-1.47c.8,1.99,2.89,2.86,5.08,2.86s4.15-.75,4.15-2.71c0-1.7-1.78-2.4-4.18-2.66-3.69-.44-7.1-1.42-7.1-5.47,0-3.72,3.66-5.24,6.99-5.26,2.81,0,5.73.8,7.1,3.59l-2.71,1.39Z"/>
    <path class="cls-1" d="M308.83,2.75l-8.03,8.64,8.7,9.11v.21h-4.21l-7.56-8v8h-3.41V2.65h3.41v7.64l6.86-7.64h4.23v.1Z"/>
    <path class="cls-1" d="M315.39,20.71V2.65h3.38v18.06h-3.38Z"/>
    <path class="cls-1" d="M176.48,2.62h3.41v18.09h-2.12v.03l-9.5-12.21v12.18h-3.41V2.65h2.76l8.85,11.2V2.62Z"/>
    <path class="cls-1" d="M187.17,20.71V2.65h3.38v18.06h-3.38Z"/>
    <path class="cls-1" d="M212.38,2.75l-8.03,8.64,8.7,9.11v.21h-4.21l-7.56-8v8h-3.41V2.65h3.41v7.64l6.86-7.64h4.23v.1Z"/>
  </g>
  <g>
    <path class="cls-1" d="M153.87,42.53l-1.77-3.96h-9.63l-1.75,3.96h-1.34l7.23-16.12h1.36l7.23,16.12h-1.34ZM151.62,37.41l-4.33-9.81-4.33,9.81h8.66Z"/>
    <path class="cls-1" d="M174.97,34.28c.09,4.1-2.53,8.24-8.18,8.24h-5.46v-16.12h5.46c5.46,0,8.08,3.92,8.18,7.88ZM162.58,27.58v13.75h4.21c4.79,0,7-3.59,6.93-7.05-.07-3.36-2.28-6.7-6.93-6.7h-4.21Z"/>
    <path class="cls-1" d="M194.61,26.41l-6.63,16.17h-1.34l-6.63-16.17h1.34l5.96,14.74,5.96-14.74h1.34Z"/>
    <path class="cls-1" d="M216.01,34.49c-.02,4.24-2.72,8.31-8.13,8.31s-8.13-4.1-8.13-8.36,2.69-8.29,8.13-8.29,8.15,3.98,8.13,8.34ZM200.97,34.47c.02,3.64,2.33,7.18,6.91,7.18s6.93-3.55,6.93-7.18-2.3-7.16-6.93-7.16-6.93,3.36-6.91,7.16Z"/>
    <path class="cls-1" d="M235.33,29.38c-1.41-1.38-3.36-2.07-5.18-2.07-4.72,0-7.14,3.45-7.11,7.19,0,3.8,2.42,7.07,7.11,7.07,1.73,0,3.52-.6,4.91-1.86v-4.51h-5.62v-1.08h6.79v6.03c-1.68,1.68-3.68,2.6-6.08,2.6-5.48,0-8.31-3.82-8.31-8.22-.02-5.04,3.41-8.34,8.31-8.34,2.12,0,4.26.81,5.9,2.42l-.71.78Z"/>
    <path class="cls-1" d="M256.11,42.53l-1.77-3.96h-9.63l-1.75,3.96h-1.34l7.23-16.12h1.36l7.23,16.12h-1.34ZM253.85,37.41l-4.33-9.81-4.33,9.81h8.66Z"/>
    <path class="cls-1" d="M277.2,34.28c.09,4.1-2.53,8.24-8.18,8.24h-5.46v-16.12h5.46c5.46,0,8.08,3.92,8.18,7.88ZM264.81,27.58v13.75h4.21c4.79,0,7-3.59,6.93-7.05-.07-3.36-2.28-6.7-6.93-6.7h-4.21Z"/>
    <path class="cls-1" d="M299.5,34.49c-.02,4.24-2.72,8.31-8.13,8.31s-8.13-4.1-8.13-8.36,2.69-8.29,8.13-8.29,8.15,3.98,8.13,8.34ZM284.46,34.47c.02,3.64,2.33,7.18,6.91,7.18s6.93-3.55,6.93-7.18-2.3-7.16-6.93-7.16-6.93,3.36-6.91,7.16Z"/>
    <path class="cls-1" d="M317.05,29.51c-1.18-1.89-3.06-2.16-4.88-2.19-1.89,0-4.88.69-4.88,3.27,0,2.05,2.21,2.53,4.93,3.04,3.11.6,6.33,1.15,6.33,4.63-.02,3.64-3.69,4.51-6.38,4.51-2.51,0-5.37-1.04-6.61-3.5l1.1-.55c.99,1.96,3.52,2.92,5.5,2.92s5.14-.55,5.14-3.41c.02-2.42-2.65-2.95-5.3-3.45-2.95-.58-5.96-1.17-5.96-4.14-.07-3.41,3.48-4.47,6.13-4.47,2.3,0,4.31.37,5.89,2.74l-1.01.6Z"/>
  </g>
  <path class="cls-1" d="M34.97,5.7v19.12c0,3.99-2.38,6.48-6.21,6.48s-6.39-2.48-6.39-6.48V5.7l-8.73.03v19.09c0,8.69,5.93,14.31,15.12,14.31s14.94-5.48,14.94-14.31V5.7h-8.73Z"/>
  <path class="cls-1" d="M69.96,5.7v18.63l-13.84-18.31c-.15-.2-.39-.32-.65-.32h-7.29v33.04h8.42v-18.52l13.79,18.27c.15.2.39.32.65.32h7.29V5.7h-8.37Z"/>
  <path class="cls-1" d="M106.08,5.7c-.21,0-.41.08-.56.23l-13.38,12.92V5.7h-8.73v33.11h8.71s.02-8.98.02-8.98l4.02-3.88,10.19,12.51c.15.22.4.35.67.35h10.03s-15.29-18.26-15.29-18.26l15.34-14.85h-11.02Z"/>
</svg>